# xmcd CD database file
#
# Track frame offsets:
#	150
#	14666
#	38190
#	58018
#	75430
#	89427
#	114605
#	141223
#	161674
#	196602
#	230890
#	267810
#
# Disc length: 3960 seconds
#
# Revision: 0
# Processed by: cddbd v1.5.2PL0 Copyright (c) Steve Scherf et al.
# Submitted via: CDex 1.70beta2
#
DISCID=9f0f760c
DTITLE=Black Joy - Time
DYEAR=2007
DGENRE=Jazz
TTITLE0=Flowers
TTITLE1=Headphone Drone
TTITLE2=River People
TTITLE3=Time
TTITLE4=Marvlude
TTITLE5=Cherrystones
TTITLE6=In The Days Of Mr train
TTITLE7=Spitting In The Wind
TTITLE8=Metalbossa
TTITLE9=Starship
TTITLE10=Untitled
TTITLE11=Paloma
EXTD=YEAR: 2007
EXTT0=
EXTT1=
EXTT2=
EXTT3=
EXTT4=
EXTT5=
EXTT6=
EXTT7=
EXTT8=
EXTT9=
EXTT10=
EXTT11=
PLAYORDER=
